<?xml version="1.0" encoding="UTF-8"?>
<svg id="Layer_2" data-name="Layer 2" xmlns="http://www.w3.org/2000/svg" xmlns:xlink="http://www.w3.org/1999/xlink" viewBox="0 0 94 94">
  <defs>
    <style>
      .cls-1 {
        fill: #fff;
      }

      .cls-2, .cls-3 {
        fill: none;
      }

      .cls-3 {
        clip-path: url(#clippath);
      }
    </style>
    <clipPath id="clippath">
      <rect class="cls-2" width="94" height="94"/>
    </clipPath>
  </defs>
  <g id="Layer_2-2" data-name="Layer 2">
    <g class="cls-3">
      <g>
        <path class="cls-1" d="m94,48.42c-.07-.71-.06-1.42,0-2.14v2.14Z"/>
        <path class="cls-1" d="m93.75,47.25c0,1.02.03,2.04,0,3.06-.04,1.15-.2,2.3-.37,3.44-.38,2.67-.99,5.28-1.81,7.84-1.11,3.48-2.62,6.77-4.54,9.88-1.56,2.51-3.29,4.89-5.29,7.07-2.3,2.51-4.83,4.77-7.62,6.72-3.24,2.28-6.71,4.14-10.43,5.52-2.42.9-4.91,1.6-7.44,2.12-1.19.25-2.4.41-3.6.57-2.26.29-4.52.42-6.79.33-1.47-.06-2.94-.13-4.41-.35-1.49-.22-2.97-.45-4.44-.78-3.02-.68-5.95-1.61-8.78-2.85-4.1-1.8-7.83-4.18-11.26-7.04-2.81-2.34-5.27-5.01-7.43-7.97-1.94-2.65-3.62-5.44-4.97-8.44-.94-2.08-1.69-4.23-2.31-6.43-.6-2.11-1.05-4.25-1.36-6.43-.35-2.42-.48-4.86-.45-7.3.03-1.9.21-3.79.48-5.67.29-1.96.69-3.89,1.21-5.79.87-3.19,2.05-6.27,3.6-9.19,1.73-3.25,3.79-6.27,6.22-9.05,1.94-2.22,4.06-4.25,6.39-6.05,2.39-1.85,4.92-3.48,7.63-4.85,2.59-1.31,5.3-2.35,8.08-3.17,1.13-.33,2.27-.6,3.42-.85,1.05-.22,2.11-.43,3.18-.57,1.03-.14,2.06-.27,3.1-.35,1.55-.12,3.1-.2,4.66-.12,1.47.07,2.94.16,4.41.36,1.85.24,3.67.58,5.48,1,1.4.33,2.78.76,4.15,1.22,2.84.96,5.55,2.21,8.14,3.71,1.98,1.15,3.88,2.42,5.67,3.85,2.98,2.39,5.65,5.08,7.97,8.11,1.66,2.16,3.11,4.46,4.38,6.87,1.05,2,1.93,4.06,2.66,6.2.63,1.84,1.15,3.71,1.55,5.62.24,1.12.42,2.25.6,3.38.33,2.12.38,4.25.34,6.38h0Zm-91.81.63c.03,1.85.14,3.69.4,5.53.26,1.84.63,3.66,1.12,5.45.43,1.59.93,3.14,1.53,4.67.86,2.19,1.89,4.3,3.08,6.34,1.53,2.61,3.3,5.05,5.32,7.3,1.8,1.99,3.73,3.85,5.87,5.49,1.03.79,2.07,1.55,3.16,2.27,1.53,1.01,3.12,1.92,4.76,2.72,1.1.54,2.22,1.05,3.36,1.5,1.33.53,2.69.98,4.06,1.39.57.17.56.19.79-.36.01-.03.03-.05.04-.08,1.24-2.83,2.69-5.54,4.43-8.1,1.06-1.55,2.2-3.05,3.45-4.45,2.41-2.71,5.06-5.15,8.04-7.23,1.86-1.3,3.79-2.47,5.82-3.49,1.27-.64,2.56-1.24,3.89-1.76,1.18-.46,2.37-.88,3.58-1.24,1.03-.31,2.07-.58,3.12-.83,1.44-.35,2.9-.61,4.37-.8,1.15-.15,2.3-.27,3.46-.33,2.93-.16,5.84-.09,8.75.3,1.64.21,3.27.44,4.88.86.17.05.3.03.35-.19.04-.2.15-.39.21-.58.73-2.14,1.35-4.31,1.78-6.54.26-1.34.47-2.69.59-4.04.2-2.2.25-4.4.15-6.61-.1-2.32-.39-4.6-.83-6.87-.23-1.17-.53-2.32-.86-3.47-.44-1.54-.94-3.05-1.56-4.53-.8-1.92-1.7-3.8-2.76-5.6-1.23-2.09-2.61-4.08-4.14-5.96-1.51-1.85-3.17-3.56-4.96-5.15-2.21-1.96-4.59-3.7-7.14-5.2-1.17-.69-2.36-1.33-3.59-1.9-1.28-.6-2.58-1.16-3.91-1.63-1.04-.37-2.1-.7-3.16-1.02-.12-.04-.2-.06-.27.11-.4.94-.8,1.87-1.25,2.78-1.64,3.31-3.62,6.4-5.99,9.24-2.15,2.58-4.57,4.88-7.22,6.94-2.11,1.63-4.35,3.07-6.71,4.31-2.64,1.39-5.4,2.5-8.24,3.39-1.55.49-3.12.86-4.71,1.17-1.74.34-3.5.58-5.26.71-3.42.25-6.83.15-10.22-.37-1.33-.2-2.65-.45-3.97-.7-.66-.13-.66-.12-.9.53-.81,2.22-1.43,4.49-1.89,6.81-.27,1.36-.46,2.73-.6,4.1-.17,1.7-.22,3.41-.2,5.13h0Zm14.42-22.96c2.03-.02,3.84-.2,5.64-.47,1.84-.28,3.66-.67,5.44-1.19,1.58-.46,3.12-1.01,4.62-1.68,1.48-.66,2.93-1.39,4.3-2.26,2-1.26,3.86-2.69,5.58-4.32,1.76-1.67,3.36-3.46,4.8-5.41,1.2-1.63,2.3-3.33,3.29-5.1.37-.66.72-1.34,1.09-2,.1-.18.06-.24-.14-.25-.31-.02-.63-.09-.94-.1-2.32-.11-4.63-.13-6.95.1-1.86.18-3.71.45-5.54.84-1.34.29-2.67.65-3.98,1.05-2.73.83-5.33,1.95-7.83,3.3-2.97,1.59-5.72,3.5-8.25,5.72-2.59,2.27-4.92,4.79-6.95,7.58-.82,1.13-1.56,2.31-2.32,3.48-.11.17.02.18.12.2,1.03.14,2.06.32,3.09.41,1.71.16,3.42.29,4.93.12h0Zm31.12,67.37c2.08.06,4.39-.18,6.69-.53,1.72-.26,3.42-.63,5.1-1.1,1.56-.44,3.1-.94,4.6-1.55,2.24-.91,4.4-1.96,6.47-3.21,1.93-1.17,3.77-2.47,5.52-3.9,1.73-1.41,3.32-2.96,4.83-4.6,2.05-2.23,3.81-4.67,5.38-7.25.11-.18.05-.23-.14-.27-.73-.16-1.47-.25-2.2-.32-2.25-.22-4.5-.31-6.76-.16-2.28.14-4.53.39-6.77.84-1.21.24-2.4.56-3.59.9-1.62.47-3.19,1.05-4.72,1.77-3.03,1.42-5.81,3.21-8.34,5.4-2.41,2.1-4.5,4.47-6.36,7.06-1.47,2.04-2.75,4.2-3.92,6.42-.14.26-.11.31.19.35,1.25.15,2.51.16,4.02.15h0Zm30.75-28.94c-.73,0-1.47.03-2.2.07-1.48.1-2.96.2-4.43.44-1.72.28-3.42.61-5.1,1.07-1.4.38-2.78.83-4.15,1.33-3.01,1.09-5.83,2.55-8.52,4.28-1.89,1.22-3.67,2.57-5.37,4.06-2.17,1.91-4.11,4.02-5.88,6.31-1.61,2.09-3.02,4.3-4.22,6.65-.53,1.03-1.02,2.08-1.48,3.13-.16.37-.19.37.2.46,1.38.35,2.79.56,4.2.76.15.02.21-.05.27-.17.85-1.71,1.79-3.36,2.8-4.98,1.25-2,2.63-3.9,4.18-5.68,2.41-2.76,5.11-5.2,8.22-7.18,1.63-1.04,3.33-1.94,5.09-2.73,1.9-.84,3.87-1.48,5.88-2,1.76-.46,3.55-.79,5.36-1.04,2.1-.3,4.22-.38,6.34-.41,2.41-.04,4.8.27,7.18.64.32.05.48-.01.63-.3.55-1.06,1.05-2.14,1.55-3.23.11-.24.09-.3-.17-.35-1.43-.27-2.86-.53-4.3-.71-2.02-.26-4.04-.37-6.07-.41h0ZM16.23,30.94c.55.04,1.35-.05,2.16-.07,1.37-.03,2.73-.18,4.08-.37,1.45-.21,2.88-.49,4.31-.83,1.27-.3,2.53-.65,3.76-1.07,1.37-.47,2.73-.99,4.06-1.58,1.35-.6,2.66-1.27,3.94-1.99,1.22-.69,2.4-1.46,3.55-2.26,1.5-1.04,2.92-2.18,4.27-3.4,1.95-1.78,3.77-3.7,5.38-5.8,1.65-2.16,3.1-4.44,4.36-6.84.55-1.05,1.01-2.14,1.53-3.21.1-.2-.02-.2-.15-.24-1.29-.33-2.61-.56-3.93-.74-.61-.08-.61-.09-.9.43-.04.07-.08.14-.11.21-1.2,2.44-2.62,4.74-4.2,6.95-2.22,3.1-4.78,5.87-7.78,8.23-1.9,1.49-3.91,2.79-6.07,3.88-3.51,1.77-7.22,2.95-11.09,3.63-1.63.29-3.27.49-4.92.6-2.3.15-4.61.22-6.91-.05-1.32-.15-2.64-.28-3.94-.55-.22-.05-.32,0-.41.19-.58,1.1-1.14,2.21-1.62,3.36-.09.23-.03.3.19.34.66.12,1.32.26,1.98.38,2.72.5,5.46.8,8.49.81h0Z"/>
        <path class="cls-1" d="m50.04,57.17c-1.74.05-2.89-.72-3.72-2.05-.61-.99-.85-2.09-1.02-3.22-.14-.99-.14-1.97.06-2.95.28-1.39.96-2.54,2.04-3.46.53-.45,1.09-.84,1.71-1.17.98-.52,2.01-.56,3.06-.37.99.18,1.98.37,2.96.63,1.21.32,2.38.73,3.4,1.49,1.56,1.17,1.75,2.86.98,4.46-.64,1.33-1.64,2.35-2.72,3.3-1.46,1.29-3.08,2.33-4.92,2.98-.63.22-1.27.39-1.82.36h0Zm-3.25-6.42c.03.98.19,2.14.69,3.22.54,1.15,1.45,1.72,2.54,1.63,1.03-.08,1.95-.46,2.84-.94.96-.52,1.84-1.16,2.68-1.84,1.02-.83,1.92-1.76,2.53-2.94.48-.94.37-1.79-.36-2.41-.26-.23-.56-.41-.87-.57-.95-.48-1.97-.76-3-.99-.97-.2-1.92-.48-2.92-.46-.29,0-.59.01-.84.14-1.06.51-1.98,1.2-2.62,2.2-.53.83-.69,1.78-.68,2.96Z"/>
        <path class="cls-1" d="m57.72,37.85c0,2.31-1.54,4.01-3.6,4.22-2.22.24-4.34-1.36-4.76-3.56-.31-1.64.16-3,1.46-4.03,1.37-1.09,3.36-1.09,4.83-.12,1.36.9,1.99,2.17,2.08,3.48h0Zm-4.4-2.6c-1.4,0-2.48,1.02-2.49,2.34,0,1.61,1.29,2.92,2.87,2.94,1.24.01,2.43-1.05,2.44-2.42,0-1.51-1.41-2.91-2.82-2.86h0Z"/>
        <path class="cls-1" d="m42.23,44.35c-2.4.05-4.41-2.01-4.4-4.36,0-2.18,1.73-4.03,4.05-4.02,2.4,0,4.38,1.98,4.38,4.38,0,2.22-1.78,3.99-4.03,4h0Zm2.45-3.99c.03-1.5-1.25-2.84-2.8-2.82-1.45.01-2.4,1.02-2.46,2.37-.07,1.41,1.14,2.84,2.75,2.86,1.41.02,2.54-1.11,2.51-2.41Z"/>
        <path class="cls-1" d="m38.63,54.09c-2.26,0-4.32-1.8-4.37-4.3-.04-2.29,1.79-4.05,3.94-4.09,2.32-.05,4.42,1.79,4.48,4.29.05,2.19-1.65,4.1-4.04,4.1h0Zm2.46-4.01c.06-1.34-1.19-2.81-2.79-2.8-1.36,0-2.42,1.05-2.47,2.4-.04,1.28,1.1,2.83,2.8,2.83,1.36,0,2.44-1.05,2.46-2.43h0Z"/>
      </g>
    </g>
  </g>
</svg>